<svg
  xmlns="http://www.w3.org/2000/svg"
  width="115"
  height="48"
  viewBox="0 0 82 25"
  fill="none"
>
  <path
    d="M4.38228 0.582809H0.305806L8.85274 24.207H12.9292L8.34722 12.0664L15.8287 12.0664L4.38228 0.582809Z"
    fill="url(#paint0_linear_1889_4611)"
  />
  <path
    d="M36.6454 11.205C39.0729 11.205 40.8904 8.86338 40.8904 6.66265C40.8904 4.52547 39.0729 3.32595 36.6454 3.32595H30.2617V17.7223H33.0057V11.205H35.2868L38.9403 17.7223H42.1487L38.051 10.4389C38.051 10.4389 36.6454 11.205 36.6454 11.205ZM36.0399 8.72694H33.0057V5.83969H36.0399C37.0626 5.83969 38.0854 6.04969 38.0854 7.28948C38.0854 8.48899 37.0799 8.72694 36.0399 8.72694Z"
    fill="url(#paint1_linear_1889_4611)"
  />
  <path
    d="M51.1566 3.32595H43.6626V17.7223H51.6278C54.5105 17.7223 56.8558 15.8913 56.8558 12.9908C56.8558 10.8536 55.7816 9.37761 54.0156 8.86337V8.79098C55.1413 8.15013 55.6985 7.18429 55.6985 5.73828C55.6985 3.77546 53.7562 3.32595 51.1566 3.32595ZM50.6168 9.06557H46.4066V5.87658H50.6168C52.1581 5.87658 52.9547 6.34152 52.9547 7.45909C52.9547 8.60261 52.1754 9.06557 50.6168 9.06557ZM50.9195 15.1724H46.4066V11.2049H51.1566C52.8194 11.2049 54.0156 11.7553 54.0156 13.1893C54.0154 14.7412 52.6442 15.1724 50.9195 15.1724Z"
    fill="url(#paint2_linear_1889_4611)"
  />
  <path
    d="M58.2096 17.7225H68.7467V15.2278H61.0048V11.5264H67.6811V9.03164H61.0048V5.82039H68.7467V3.32574H58.2096V17.7225V17.7225Z"
    fill="url(#paint3_linear_1889_4611)"
  />
  <path
    d="M78.6686 3.32595H69.8467V6.17167H72.6079V17.7223H75.9245V6.17167H78.6686V3.32595Z"
    fill="url(#paint4_linear_1889_4611)"
  />
  <path
    d="M80.158 3.67413C80.158 4.47124 79.5009 5.13042 78.7145 5.13042C77.9108 5.13042 77.271 4.47124 77.271 3.67413C77.271 2.89536 77.9108 2.21802 78.7145 2.21802C79.5009 2.21802 80.158 2.89536 80.158 3.67413ZM78.7145 2.562C78.0746 2.562 77.6207 3.0355 77.6207 3.67413C77.6207 4.33333 78.0746 4.78981 78.7145 4.78981C79.3372 4.78981 79.8083 4.33333 79.8083 3.67413C79.8082 3.0355 79.3372 2.562 78.7145 2.562ZM78.5975 4.22106H78.2658V3.17284H78.7663C79.0117 3.17284 79.2224 3.27127 79.2224 3.5957C79.2224 3.83561 79.0807 3.92166 78.8873 3.94002L79.257 4.22106H78.8873L78.5802 3.95837H78.5975V4.22106ZM78.5975 3.7513H78.7145C78.8173 3.7513 78.9028 3.7329 78.9028 3.60887C78.9028 3.5013 78.8001 3.4829 78.7145 3.4829H78.5975V3.7513Z"
    fill="#999999"
  />
  <path
    d="M24.9684 19.3309L24.9684 19.3309L18.5117 1.12458C18.3068 0.59091 17.774 0.235352 17.185 0.235352C16.596 0.235352 16.0632 0.59091 15.8583 1.12458L15.5053 2.0293L22.4172 12.0664H17.0596H16.6777L11.3907 3.45473L9.4019 8.66302L13.1991 14.5241L9.95116 14.5241L7.94227 10.9697L6.51762 14.5241L3.76562 14.5241L9.40301 3.45343L9.40276 3.45361C9.60761 2.91977 10.1404 2.56421 10.7294 2.56421C11.3184 2.56421 11.8512 2.91977 12.0561 3.45361V3.45361L18.5128 21.6599L18.5128 21.6599C18.7177 22.1937 19.2505 22.5493 19.8395 22.5493C20.4285 22.5493 20.9613 22.1937 21.1662 21.6599V21.6599L24.9684 12.0663L24.9684 19.3309Z"
    fill="url(#paint5_linear_1889_4611)"
    stroke="url(#paint6_linear_1889_4611)"
    stroke-width="0.469301"
  />
  <defs>
    <linearGradient
      id="paint0_linear_1889_4611"
      x1="8.06725"
      y1="0.582809"
      x2="8.06725"
      y2="24.207"
      gradientUnits="userSpaceOnUse"
    >
      <stop stop-color="#2DD1DB" />
      <stop offset="0.4" stop-color="#2D5ADB" />
      <stop offset="1" stop-color="#6D2FD1" />
    </linearGradient>
    <linearGradient
      id="paint1_linear_1889_4611"
      x1="36.2147"
      y1="3.32556"
      x2="36.2147"
      y2="17.7223"
      gradientUnits="userSpaceOnUse"
    >
      <stop stop-color="#2DD1DB" />
      <stop offset="0.4" stop-color="#2D5ADB" />
      <stop offset="1" stop-color="#6D2FD1" />
    </linearGradient>
    <linearGradient
      id="paint2_linear_1889_4611"
      x1="50.2591"
      y1="3.32556"
      x2="50.2591"
      y2="17.7223"
      gradientUnits="userSpaceOnUse"
    >
      <stop stop-color="#2DD1DB" />
      <stop offset="0.4" stop-color="#2D5ADB" />
      <stop offset="1" stop-color="#6D2FD1" />
    </linearGradient>
    <linearGradient
      id="paint3_linear_1889_4611"
      x1="63.4784"
      y1="3.32574"
      x2="63.4784"
      y2="17.7225"
      gradientUnits="userSpaceOnUse"
    >
      <stop stop-color="#2DD1DB" />
      <stop offset="0.4" stop-color="#2D5ADB" />
      <stop offset="1" stop-color="#6D2FD1" />
    </linearGradient>
    <linearGradient
      id="paint4_linear_1889_4611"
      x1="74.2576"
      y1="3.32556"
      x2="74.2576"
      y2="17.7223"
      gradientUnits="userSpaceOnUse"
    >
      <stop stop-color="#2DD1DB" />
      <stop offset="0.4" stop-color="#2D5ADB" />
      <stop offset="1" stop-color="#6D2FD1" />
    </linearGradient>
    <linearGradient
      id="paint5_linear_1889_4611"
      x1="14.3673"
      y1="0"
      x2="14.3673"
      y2="22.7847"
      gradientUnits="userSpaceOnUse"
    >
      <stop stop-color="#2DD1DB" />
      <stop offset="0.4" stop-color="#2D5ADB" />
      <stop offset="1" stop-color="#6D2FD1" />
    </linearGradient>
    <linearGradient
      id="paint6_linear_1889_4611"
      x1="14.3673"
      y1="0"
      x2="14.3673"
      y2="22.7847"
      gradientUnits="userSpaceOnUse"
    >
      <stop stop-color="#2DD1DB" />
      <stop offset="0.4" stop-color="#2D5ADB" />
      <stop offset="1" stop-color="#6D2FD1" />
    </linearGradient>
  </defs>
</svg>